<svg height="116" viewBox="0 0 135 116" width="135" xmlns="http://www.w3.org/2000/svg"><g fill="none" fill-rule="evenodd" transform="translate(-837 -1654)"><path d="m0 1355h1200v929h-1200z" fill="#f5f5f5"/><g fill="#4a4a4a" fill-rule="nonzero" transform="matrix(.9961947 -.08715574 .08715574 .9961947 835.2435 1661.05824)"><path d="m26 63c-1.1026667 0-2 .8973333-2 2s.8973333 2 2 2 2-.8973333 2-2-.8973333-2-2-2z"/><path d="m54 91c-1.1026667 0-2 .8973333-2 2s.8973333 2 2 2 2-.8973333 2-2-.8973333-2-2-2z"/><path d="m63 97c-1.1026667 0-2 .8973333-2 2 0 1.102667.8973333 2 2 2s2-.897333 2-2c0-1.1026667-.8973333-2-2-2z"/><path d="m131.524686 24.7744662c-1.944421.3093148-3.849212.4662466-5.661059.4662466-12.477936 0-19.738437-7.1904318-26.7603054-14.1443288-5.7619861-5.70640311-11.2046538-11.096384-18.8189716-11.096384-4.1206326 0-8.4779029 1.60769777-13.2842147 4.90809801-4.8060267-3.30040024-9.1635821-4.90809801-13.2842147-4.90809801-7.6151731 0-13.0586961 5.39026519-18.8218226 11.0969526-7.0215831 6.9530441-14.2823698 14.1429073-26.75773967 14.1437602-1.81127648 0-3.71606762-.1566475-5.66105867-.4662466-.76636411-.1222476-1.5372899.1791069-2.01683768.7863646-.47954778.6072578-.59216453 1.4257479-.29394397 2.1393326 1.39673279 3.3424762 3.65847627 6.3446492 6.52578424 8.8620963-.65260694 1.9099052-.98789124 3.9011192-.98789124 5.9420851 0 5.7311369 2.70508283 11.1356169 7.19179119 14.6094382-3.02126509 4.2817924-4.56568263 9.428131-4.38207457 14.7268526.21268885 6.131711 2.72703597 11.8992379 7.08002967 16.240164 5.9966281 5.9796122 14.798126 8.3662829 22.9555701 6.3722259 3.9914798 12.2034355 15.3897203 20.5469745 28.4524079 20.5469745 13.0624025 0 24.4609282-8.343255 28.4524079-20.5469745 6.5856568 1.6128151 13.6599838.4019956 19.3176218-3.3888165.980193-.6567253 1.241065-1.9815479.582185-2.9589599-.019387-.0289983-.04134-.0551536-.062153-.0830146-.67627-.9069065-1.954114-1.1346281-2.904942-.4975192-5.172957 3.4661452-11.786269 4.3119278-17.6916632 2.2618644-.5679305-.1973019-1.1937375-.1466971-1.7228937.1395897-.528871.2862868-.9123382.7815316-1.0563166 1.3640555-2.8282485 11.4491961-13.0735216 19.4453251-24.9142462 19.4453251-11.8410097 0-22.0857126-7.996129-24.9139611-19.4456094-.1439784-.5825239-.5274455-1.078053-1.0566017-1.3640555-.5294413-.2862868-1.1552483-.3368916-1.7226086-.1395897-7.1900805 2.4961249-15.3116013.6427948-20.6906905-4.7210308-7.3463184-7.3254727-7.7916535-19.2053784-1.0138358-27.0454281.4148288-.4798928.5941603-1.1187075.4895265-1.7433073-.1046338-.6248841-.4823989-1.171018-1.0309422-1.4902832-4.3683895-2.5433182-7.08202547-7.2492813-7.08202547-12.2819012 0-1.0877191.12630187-2.1561061.36778637-3.1989063 5.2564937 3.3541323 11.7971034 5.3311314 18.6062827 5.3311314 4.1796495 0 9.2699265-.7002227 14.8930662-2.918874 3.0879797 10.0152037 12.4337444 17.0421649 23.1540036 17.0421649 10.7279571 0 20.079709-7.0371959 23.1608462-17.0643401 4.9166477 1.9522654 9.9051425 2.9410492 14.8859385 2.9410492 6.809179 0 13.349789-1.9767148 18.606283-5.3311314.241769 1.0425159.367786 2.1111872.367786 3.1989063 0 5.0326199-2.713636 9.738583-7.08174 12.2819012-.548829.3195494-.926309.8653991-1.030942 1.4902832-.104634.6248841.074697 1.2636988.489526 1.7433073 5.844952 6.7611438 6.443104 16.6535313 1.454324 24.0563328-.638922.948698-.410267 2.2226315.49979 2.8972675.027656.0204694.053885.0423602.082681.0616924.365791.245348.780334.3627626 1.190601.3627626.688246 0 1.363946-.3309214 1.776779-.9432965 5.612021-8.3281871 5.403894-19.24916-.29651-27.3402438 4.486423-3.4738212 7.192362-8.8788698 7.192362-14.6100067 0-2.0409659-.335285-4.0321799-.988177-5.9418008 2.867308-2.5177314 5.129052-5.5196201 6.525785-8.8620963.29822-.7135847.185603-1.5320748-.293659-2.1393326-.480118-.607542-1.25304-.9083279-2.017123-.7866489zm-64.5245507 29.7209443c-9.0116208 0-16.8460402-6.0268055-19.2209706-14.5466086 6.066479-3.0669927 12.6139313-7.9705419 19.2215408-15.6300633 5.767118 6.6764234 11.9838477 11.7943324 18.5090617 15.2323322.2394888.1262277.4795478.2453481.7196068.367027-2.3649518 8.5357238-10.207069 14.5773127-19.2292387 14.5773127zm38.0467847-14.1232909c-8.9049912 0-22.4463713-3.5949316-36.3866142-20.7218169-.4059905-.4989407-1.0158316-.788639-1.6601705-.788639s-1.2541799.2896983-1.6601704.7883547c-13.940243 17.1268853-27.481623 20.7218169-36.3866143 20.7218169-10.8422844 0-18.9153373-5.1943847-22.95015308-10.9286489.7207472.041223 1.43294122.0616924 2.13344591.0616924 14.23817837-.0008529 22.49027757-8.1723926 29.77102177-15.3821566 5.3420253-5.28990843 9.9556057-9.85855619 15.8082554-9.85855619 3.5336 0 7.4634969 1.62845142 12.014354 4.97831929.7549598.55580002 1.7850467.55551572 2.5397215 0 4.5508571-3.34986787 8.480754-4.97831929 12.0143539-4.97831929 5.8512242 0 10.4642343 4.56807917 15.8056895 9.85770329 7.2807445 7.2103326 15.5331285 15.3830095 29.7738725 15.3830095.70079 0 1.412699-.0207537 2.133446-.0619767-4.034816 5.7345485-12.107868 10.9292175-22.950438 10.9292175z"/></g></g></svg>