<svg height="151" viewBox="0 0 79 151" width="79" xmlns="http://www.w3.org/2000/svg"><g fill="none" fill-rule="evenodd" transform="translate(-227 -1630)"><path d="m0 1355h1200v929h-1200z" fill="#f5f5f5"/><path d="m0 0h108v108h-108z" transform="matrix(.98162718 -.190809 .190809 .98162718 106.681457 1615.681647)"/><g transform="matrix(.96592583 .25881905 -.25881905 .96592583 233.251434 1614.579335)"><path d="m0 0h108v108h-108z"/><g fill="#4a4a4a" fill-rule="nonzero" transform="translate(31.2)"><path d="m48.626444 69.0040286v-4.4386379h.0516897c1.2088702 0 2.1859708-.9787681 2.1859708-2.1859709v-5.0188956h.241774c1.2055354 0 2.1859708-.978768 2.1859708-2.1859708v-19.3219145c0-1.2072028-.9804354-2.1859708-2.1859708-2.1859708h-5.4574237c-1.3639391-2.7862374-1.6974205-6.3244754-1.7657842-8.3387033v-14.1229389c0-6.15773472-5.6625148-11.1666259-12.6256072-11.1666259s-12.6272746 5.00889118-12.6272746 11.1666259v14.1229389c-.0700311 2.0142279-.4001778 5.5524659-1.7641168 8.3387033h-5.4574237c-1.2072028 0-2.18597087.9771006-2.18597087 2.1859708v19.3219145c0 1.2072028.97876807 2.1859708 2.18597087 2.1859708h.2401066v5.0188956c0 1.2072028.978768 2.1859709 2.1859708 2.1859709h.053357v4.4386379c-7.22821011.9454199-12.7956827 6.5128924-12.7956827 13.2208716v57.7539828c0 5.525787 5.00388896 10.021117 11.1549541 10.021117h38.0235534c6.1493977 0 11.1516193-4.493662 11.1516193-10.021117v-57.7539828c-.0033348-6.7079792-5.56914-12.2754517-12.7956828-13.2208716zm-43.16583718 22.1548392h51.58791088v36.5428962h-51.58791088zm12.79568278-20.5474587v-7.7951286h4.6837467c.0933748 0 .1867497-.0100044.2767896-.0283459.0883726.0183415.1784126.0283459.2751222.0283459.7236547 0 1.3105821-.5869273 1.3105821-1.310582 0-.7219873-.5885948-1.3122495-1.3105821-1.3122495-.0967096 0-.1867496.0100045-.2751222.0316808-.0917074-.0200089-.1834148-.0316808-.2767896-.0316808h-6.8680501-.0533571v-4.5837023h30.4752011v4.5837023h-.0516896-6.8663828-.0033348-.5535792c-.7236547 0-1.3122494.5902622-1.3122494 1.3122495 0 .7236547.5902621 1.310582 1.3122494 1.310582h.5502444.0033348 4.6837468v7.7951286zm26.1132639-32.5727994h4.4219638v14.9499729h-.1133836-34.8454754-.1133837v-14.9499729h4.4219639zm-21.3728253-12.6022635c.0016674-.0250111.0016674-.0500222.0016674-.0733659v-14.1579544c0-3.74833133 3.7049788-6.79635167 8.2570004-6.79635167s8.255333 3.04802034 8.255333 6.79635167v14.1579544c0 .0233437 0 .0483548.0033348.0733659.0750333 2.3377049.4685414 6.4628703 2.1259441 9.9777646h-20.7708913c1.6590702-3.5148943 2.0509109-7.6400597 2.1276116-9.9777646zm-6.9264095 47.7978944h30.3701545c5.8492644 0 10.6063771 4.033458 10.6063771 8.9906596v6.3111361h-51.58624348v-6.3111361c0-4.9555342 4.76044748-8.9906596 10.60971188-8.9906596zm34.196854 72.3954854h-38.0235534c-3.74166177 0-6.78301248-2.536127-6.78301248-5.650843v-9.65262h51.58791088v9.65262c0 3.113049-3.0413507 5.650843-6.781345 5.650843z"/><path d="m22.2948 43.3308h-1.008c-.522 0-.9444.4224-.9444.9444 0 .5208.4236.9432.9444.9432h1.008c.522 0 .9444-.4224.9444-.9432 0-.522-.4236-.9444-.9444-.9444z"/></g></g></g></svg>