<svg height="143" viewBox="0 0 184 143" width="184" xmlns="http://www.w3.org/2000/svg"><g fill="none" fill-rule="evenodd"><path d="m-491-280h1200v929h-1200z" fill="#f5f5f5"/><g fill="#4a4a4a" fill-rule="nonzero"><path d="m131.984139 120.081123c-.202899-2.715724-2.319859-4.873877-4.984139-5.081123-2.979772.231558-5.210887 2.881522-4.984139 5.918877.202899 2.715724 2.319859 4.873877 4.984139 5.081123 2.979772-.231159 5.210887-2.881522 4.984139-5.918877z"/><path d="m143.984139 117.081123c-.202899-2.715724-2.319859-4.873877-4.984139-5.081123-2.979772.231558-5.210887 2.881522-4.984139 5.918877.202899 2.715724 2.319859 4.873877 4.984139 5.081123 2.979772-.231159 5.210887-2.881522 4.984139-5.918877z"/><path d="m183.97486 30.4220442c-.069832-.4332686-.155228-.6041801-.255387-.7667057l-.574623-.6708675-.638469-.3833529-69.497357-28.36811144c-.767759-.31067555-1.6265-.31067555-2.394259 0l-69.1781229 27.88892034-.5746221.1916765-.6065456.6069753c-.2917006.4180942-.3770958.5890057-.4469284.7667057-.0335196.520721-.0335196.789068 0 1.0542204v25.5568572h-36.61620069c-1.7629727 0-3.19234531 1.4303853-3.19234531 3.1946071s1.42937261 3.1946072 3.19234531 3.1946072l36.23311929.4152989v11.9255564h-12.4182233c-1.7629727 0-3.1923453 1.4303854-3.1923453 3.1946072s1.4293726 3.1946071 3.1923453 3.1946071h12.4182233v11.9255565h-29.43342378c-1.76297269 0-3.19234531 1.4303853-3.19234531 3.1946071s1.42937262 3.1946071 3.19234531 3.1946071h29.43342378v11.3534583c.0063847 1.289822.7873122 2.449065 1.9792541 2.939038l69.2100463 28.751464c.34597.137369.713489.212841 1.085397.223623.371909-.010782.739427-.086254 1.085398-.223623l69.210046-28.751464c1.191942-.489973 1.97287-1.649216 1.979254-2.939038v-79.865179c.03352-.2651524.03352-.5334994 0-.7986518zm-71.726787-26.4220442 27.751927 11.1625-63.133945 26.8375-28.866055-12.0785714zm-1.248073 135-66-27.39839v-11.7900158h13.9460285c1.85583 0 3.3604888-1.4997101 3.3604888-3.3494364 0-1.8497262-1.5046588-3.3494364-3.3604888-3.3494364h-13.9460285v-11.4550724h31.9246436c1.8558299 0 3.3604888-1.4997102 3.3604888-3.3494364 0-1.8497263-1.5046589-3.3494364-3.3604888-3.3494364h-31.9246436v-11.4215781h6.7209776c1.8558299 0 3.3604888-1.4997102 3.3604888-3.3494364 0-1.8497263-1.5046589-3.3494364-3.3604888-3.3494364h-6.7209776v-21.8383253l25.6741344 10.584219 40.3258656 16.747182zm1.421405-82-26.421405-11.1804444 62.608696-26.8195556 27.391304 11.1466667-39.899666 16.8888889zm3.578595 81v-76.6192469l18.881098-7.8326359 46.951219-19.5481172.167683 76.619247z"/></g></g></svg>