<?xml version="1.0" encoding="UTF-8"?>
<svg width="106px" height="103px" viewBox="0 0 106 103" version="1.1" xmlns="http://www.w3.org/2000/svg" xmlns:xlink="http://www.w3.org/1999/xlink">
    <!-- Generator: Sketch 49.3 (51167) - http://www.bohemiancoding.com/sketch -->
    <title>like</title>
    <desc>Created with Sketch.</desc>
    <defs></defs>
    <g id="Page-1" stroke="none" stroke-width="1" fill="none" fill-rule="evenodd">
        <g id="Home" transform="translate(-993.000000, -1668.000000)">
            <rect id="Rectangle-7" fill="#F5F5F5" x="0" y="1355" width="1200" height="929"></rect>
            <g id="like" transform="translate(1040.700867, 1724.221066) rotate(19.000000) translate(-1040.700867, -1724.221066) translate(987.200867, 1674.721066)" fill="#4A4A4A" fill-rule="nonzero">
                <path d="M106.823138,29.5208191 C105.261251,12.4136519 93.0933463,0.00204778157 77.8654596,0.00204778157 C67.7203945,0.00204778157 58.4313836,5.43481229 53.2045144,14.1419795 C48.0249751,5.3221843 39.1166614,0 29.1341643,0 C13.9083354,0 1.73837294,12.4116041 0.178543458,29.5187713 C0.0550741057,30.2744027 -0.451150237,34.2511945 1.08810102,40.7365188 C3.3064337,50.090785 8.4304118,58.5993174 15.9023654,65.3365188 L53.1798205,99 L91.0972585,65.3385666 C98.5692121,58.5993174 103.69319,50.0928328 105.911523,40.7365188 C107.450774,34.2532423 106.94455,30.2764505 106.823138,29.5208191 Z M101.904942,39.7986348 C99.8800451,48.3419795 95.1861519,56.1255973 88.3438919,62.2935154 L53.2045144,93.4914676 L18.6680789,62.3017065 C11.813472,56.1215017 7.12163667,48.3399317 5.09468148,39.796587 C3.63774313,33.6593857 4.23656949,30.1924915 4.23862731,30.1699659 L4.26949465,29.9631399 C5.60707929,14.9754266 16.0628756,4.09556314 29.1341643,4.09556314 C38.7791785,4.09556314 47.2697542,9.99317406 51.2989708,19.4846416 L53.1942253,23.9549488 L55.0894799,19.4846416 C59.0549039,10.1385666 67.9940849,4.09761092 77.8675174,4.09761092 C90.9367483,4.09761092 101.394602,14.9774744 102.758939,30.159727 C102.763054,30.1924915 103.361881,33.6614334 101.904942,39.7986348 Z" id="Shape"></path>
                <path d="M32,13 C20.972,13 12,21.972 12,33 C12,34.106 12.894,35 14,35 C15.106,35 16,34.106 16,33 C16,24.178 23.178,17 32,17 C33.106,17 34,16.106 34,15 C34,13.894 33.104,13 32,13 Z" id="Shape"></path>
            </g>
        </g>
    </g>
</svg>