<svg height="103" viewBox="0 0 106 103" width="106" xmlns="http://www.w3.org/2000/svg"><g fill="none" fill-rule="evenodd" transform="translate(-993 -1668)"><path d="m0 1355h1200v929h-1200z" fill="#f5f5f5"/><g fill="#4a4a4a" fill-rule="nonzero" transform="matrix(.94551858 .32556815 -.32556815 .94551858 1006.231247 1660)"><path d="m106.823138 29.5208191c-1.561887-17.1071672-13.7297917-29.51877132-28.9576784-29.51877132-10.1450651 0-19.434076 5.43276451-24.6609452 14.13993172-5.1795393-8.8197952-14.087853-14.1419795-24.0703501-14.1419795-15.2258289 0-27.39579136 12.4116041-28.95562084 29.5187713-.12346935.7556314-.6296937 4.7324232.90955756 11.2177475 2.21833268 9.3542662 7.34231078 17.8627986 14.81426438 24.6l37.2774551 33.6634812 37.917438-33.6614334c7.4719536-6.7392492 12.5959315-15.2457338 14.8142645-24.6020478 1.539251-6.4832765 1.033027-10.4600683.911615-11.2156997zm-4.918196 10.2778157c-2.0248969 8.5433447-6.7187901 16.3269625-13.5610501 22.4948806l-35.1393775 31.1979522-34.5364355-31.1897611c-6.8546069-6.1802048-11.54644223-13.9617748-13.57339742-22.5051195-1.45693835-6.1372013-.85811199-9.6040955-.85605417-9.6266211l.03086734-.206826c1.33758464-14.9877133 11.79338095-25.86757676 24.86466965-25.86757676 9.6450142 0 18.1355899 5.89761092 22.1648065 15.38907846l1.8952545 4.4703072 1.8952546-4.4703072c3.965424-9.346075 12.904605-15.38703068 22.7780375-15.38703068 13.0692309 0 23.5270846 10.87986348 24.8914216 26.06211608.004115.0327645.602942 3.5017064-.853997 9.6389078z"/><path d="m32 13c-11.028 0-20 8.972-20 20 0 1.106.894 2 2 2s2-.894 2-2c0-8.822 7.178-16 16-16 1.106 0 2-.894 2-2s-.896-2-2-2z"/></g></g></svg>