<svg height="119" viewBox="0 0 119 119" width="119" xmlns="http://www.w3.org/2000/svg" xmlns:xlink="http://www.w3.org/1999/xlink"><filter id="a" height="112.6%" width="112.6%" x="-6.3%" y="-4.5%"><feOffset dx="0" dy="2" in="SourceAlpha" result="shadowOffsetOuter1"/><feGaussianBlur in="shadowOffsetOuter1" result="shadowBlurOuter1" stdDeviation="2"/><feColorMatrix in="shadowBlurOuter1" result="shadowMatrixOuter1" type="matrix" values="0 0 0 0 0   0 0 0 0 0   0 0 0 0 0  0 0 0 0.204455389 0"/><feMerge><feMergeNode in="shadowMatrixOuter1"/><feMergeNode in="SourceGraphic"/></feMerge></filter><g fill="none" fill-rule="evenodd" filter="url(#a)" transform="translate(4 2)"><circle cx="55.5" cy="55.5" fill="#fff" r="55.5"/><g fill="#6ac259" fill-rule="nonzero" transform="translate(29 32)"><path d="m14.3035527 2.93465108c-.0021497.00571513-.0054374.00850623-.0064491.01355681l-.2908412.52791805c-.0064491.0107657-.0113807.02272759-.0156801.03402493l-4.9905823 9.07960563 10.5639851 6.4102435 4.8481965-8.8254819.606973-1.10461402 1.4615403-2.65899507 3.5193051-6.41090901-10.5629734.00000092c-2.1514663-.00119619-4.0452219 1.16814494-5.1334739 2.93465016z"/><path d="m38.9539604 3.20512193c-.5053218-.94299565-1.2435644-1.76198638-2.1845297-2.34599242-.9414604-.58413895-1.9696782-.85912951-2.9856436-.85912951h-10.3371287-3.4466584c2.1016089 0 3.9492574 1.16189823 5.0175743 2.92042895l.3226485.60447417 8.3231435 15.47509688 10.3366337-6.4097122z"/><path d="m29 19h12.6664904l6.3335096-11z"/><path d="m53.308996 28.1188325c-.0022095-.0037659-.0033792-.0069043-.008838-.0112979l-.2977631-.4997463c-.004419-.011298-.0139069-.0214662-.0183259-.0300024l-5.1261783-8.5777859-10.8578907 6.0544499 4.9842502 8.335633.6238599 1.0444334 1.4989532 2.5120381 3.6205966 6.0534456 5.4295302-9.0811727c1.1061815-1.8499778 1.0885055-4.0298559.1518059-5.7999948z"/><path d="m40.4767385 49c1.0525563 0 2.1210448-.2568727 3.097409-.8040801.9785485-.5467098 1.74214-1.3130987 2.2690606-2.1956711l5.3663412-8.999378 1.7904507-3.0008708c-1.0920015 1.8284613-3.0217309 2.8941411-5.0484671 2.9992536h-.6764782l-17.2750547.0016172v11.9986316h10.4767385z"/><path d="m33 32-6 10.4993671 6 10.5006329z"/><path d="m24 36.000539h-9.7563743-1.2212483l-2.9386286-.000539-7.0837488.000539 5.31217553 9.7494895c1.08334898 1.9854481 3.00312577 3.1406277 5.01525957 3.2492458.0054702-.000539.0086505 0 .0146295 0h.5840366c.0114492.0017519.0244249 0 .0368918-.0017519l10.0359893.0017519v-12.9987353z"/><path d="m.83863148 27.8563381c-.52962093.8891825-.83863148 1.9218179-.83863148 3.0239227 0 1.1016032.30901055 2.1331101.83863148 3.0234212l5.43075958 9.0707651 1.8115532 3.0255529c-1.10266195-1.8431947-1.08992192-4.0126696-.16146028-5.7798744l.3411206-.5703007 8.73939542-14.6013524-10.86034917-6.0484725z"/><path d="m20 30-6.3324076-10.9982764-12.6675924-.0017236z"/></g></g></svg>