<svg height="119" viewBox="0 0 119 119" width="119" xmlns="http://www.w3.org/2000/svg" xmlns:xlink="http://www.w3.org/1999/xlink"><filter id="a" height="112.6%" width="112.6%" x="-6.3%" y="-4.5%"><feOffset dx="0" dy="2" in="SourceAlpha" result="shadowOffsetOuter1"/><feGaussianBlur in="shadowOffsetOuter1" result="shadowBlurOuter1" stdDeviation="2"/><feColorMatrix in="shadowBlurOuter1" result="shadowMatrixOuter1" type="matrix" values="0 0 0 0 0   0 0 0 0 0   0 0 0 0 0  0 0 0 0.142012002 0"/><feMerge><feMergeNode in="shadowMatrixOuter1"/><feMergeNode in="SourceGraphic"/></feMerge></filter><g fill="none" fill-rule="evenodd" filter="url(#a)" transform="translate(4 2)"><circle cx="55.5" cy="55.5" fill="#fff" r="55.5"/><g fill-rule="nonzero" transform="translate(26 20)"><g fill="#9ad14b" transform="translate(29)"><path d="m6.39752326 6.42791469c1.60625581 1.54890995 2.60086046 3.68707111 2.60086046 6.04986731-4.90523256 0-8.8807093-3.82988627-8.8807093-8.55547868 2.4512093 0 4.67205814.95818009 6.27984884 2.50561137z"/><path d="m15.2581512 15.2705024c0 3.3299715-2.8032093 6.0305213-6.25976748 6.0305213 0-1.6649858.69965116-3.1722464 1.83329068-4.2643697 1.1321047-1.0906445 2.6966628-1.7661516 4.4264768-1.7661516z"/><path d="m8.99851163 12.477782c0-3.42670143 1.44099997-6.52895736 3.77312787-8.77419906 2.3305931-2.24524171 5.5507791-3.63494787 9.1077442-3.63494787 0 6.85327962-5.7670697 12.40914693-12.88087207 12.40914693z"/><path d="m7.840058 11.362h2.316651v14.596351h-2.316651z"/></g><path d="m56 40.9400985-22.5815901 14.0599015c-21.7044419-3.4760205-8.3592402-23.0504265-8.3592402-23.0504265 3.1035323-4.2099635 8.1589147-6.9495735 13.8669297-6.9495735 9.1674715.0001234 16.6479256 7.0657904 17.0739006 15.9400985z" fill="#b27214"/><g fill="#995c0d" transform="translate(19 25)"><path d="m18.8533333 15.1104809s1.5473685 4.9775106 7.7784737 6.0258297c6.2311053 1.0483192-11.5636316 7.7538596-11.5636316 7.7538596l-14.9771754-3.7252042 6.67296491-14.6030426"/><path d="m8.1164386 19.0791617c.42171929-9.0170255 6.797-16.46669361 15.2646667-18.47176595-1.3358948-.34688937-2.736386-.53285958-4.1801053-.53285958-8.9359298 0-16.22722807 7.06760851-16.6424386 15.94407663l10.5596842 5.8665149c.1452807.0805829.294.1536383.4451755.2200297z"/></g><path d="m62.2509805 46.2499265-18.1848693 11.3306935c-1.8278745 1.1382325-4.0103738 1.589114-6.1491231 1.2706997l-21.4783683-3.1990531c-1.1048746-.1636433-2.2338743.0803429-3.166624.6859955l-7.19212271 4.6617379-4.05737372-9.8636958-2.02249937-4.916075 4.27149866-2.5920451c1.54262451-.9358965 2.96737407-2.0370381 4.25187366-3.2808748 1.2829996-1.2439598 2.42399928-2.6307378 3.40062398-4.1334708 1.7131244-2.6440462 4.6836235-4.2703743 7.8653725-4.2123352.7244998.0134316 1.4489995.0893384 2.1674993.2321566l2.4542492.4850149 12.4718711 2.464014c1.5501245.3064614 2.5901242 1.6486318 2.5901242 3.1142741 0 .340718-.055875.6889529-.1751249 1.0326283-.5101249 1.4641636-2.0149994 2.3524951-3.5651239 2.1039495l-7.8306226-1.2543107c-.1584999-.0252612-.3154999-.0372141-.4708748-.0372141-1.4776245 0-2.7606241 1.1114926-2.8979991 2.6143489-.137375 1.4938608.9146247 2.8419461 2.4149992 3.0919703l13.8288707 2.3092429c1.2286246.2052934 2.4919992-.0073935 3.5832489-.6010932l10.7482466-5.8580096 3.323624-1.8122751c.5734998-.3124995 1.1953746-.4612324 1.8112494-.4612324 1.2422496 0 2.4542492.6086099 3.166624 1.7096284 1.1183746 1.7272496.5991248 4.0217055-1.1592496 5.1153304z" fill="#ffd3ae"/><path d="m22 32.2440771s-4.8006877 1.78473-6.0006718 6.9189518c-.3974062 1.6999881-1.3301149 3.21697-2.6969269 4.2570536l-11.27591742 8.5799175-2.02648388-5.1379566 4.27991392-2.7090342c1.54566364-.9781371 2.97322008-2.1289776 4.26025027-3.4289533 1.28552723-1.3001046 2.42877471-2.7494733 3.40732351-4.3200305 1.7164995-2.7633823 4.6928507-4.4631129 7.880868-4.4024542.7259272.013909 1.4518543.0932418 2.1716443.2425059z" fill="#e5b48f"/></g></g></svg>