<svg height="119" viewBox="0 0 119 119" width="119" xmlns="http://www.w3.org/2000/svg" xmlns:xlink="http://www.w3.org/1999/xlink"><filter id="a" height="112.6%" width="112.6%" x="-6.3%" y="-4.5%"><feOffset dx="0" dy="2" in="SourceAlpha" result="shadowOffsetOuter1"/><feGaussianBlur in="shadowOffsetOuter1" result="shadowBlurOuter1" stdDeviation="2"/><feColorMatrix in="shadowBlurOuter1" result="shadowMatrixOuter1" type="matrix" values="0 0 0 0 0   0 0 0 0 0   0 0 0 0 0  0 0 0 0.187528306 0"/><feMerge><feMergeNode in="shadowMatrixOuter1"/><feMergeNode in="SourceGraphic"/></feMerge></filter><g fill="none" fill-rule="evenodd" filter="url(#a)" transform="translate(4 2)"><circle cx="55.5" cy="55.5" fill="#fff" r="55.5"/><g fill-rule="nonzero" transform="translate(29 26)"><path d="m53 28.1638057c0-4.191575-2.5162581-7.7877492-6.1018969-9.3230286.6331678-1.2399793.9930955-2.64646.9930955-4.1388846 0-4.98345224-3.9878702-9.02327906-8.9072298-9.02327906-1.4015685 0-2.7269673.3289048-3.9066149.91306503-1.0481134-3.80178358-4.4900816-6.59167847-8.5773539-6.59167847s-7.5291249 2.78989489-8.5773539 6.59167847c-1.1796476-.58427732-2.5050464-.91306503-3.9066149-.91306503-4.91935958 0-8.90722983 4.03982682-8.90722983 9.02327906 0 1.4924246.35981219 2.8989053.99309551 4.1388846-3.58563883 1.5353965-6.10189688 5.1314536-6.10189688 9.3230286 0 5.4321397 4.22759093 9.8584795 9.53091974 10.1007379.73938916 2.712967 3.59465436 4.7354564 7.00691756 4.7354564 1.9339472 0 3.6882772-.6506671 4.9810814-1.7072841 1.2929197 1.056617 3.0472497 1.7072841 4.9810813 1.7072841s3.6882772-.6506671 4.9810813-1.7072841c1.2929198 1.056617 3.0472498 1.7072841 4.9810814 1.7072841 3.4122632 0 6.2675284-2.0224894 7.0069176-4.7355735 5.3033288-.2422584 9.5309197-4.6684811 9.5309197-10.1006208z" fill="#129b12"/><g fill="#097c09" transform="translate(25)"><path d="m1.29494309.01787772c-.10801626.00666032-.21557724.01460598-.32245528.02535598-.03278049.00327173-.06533334.00701087-.09788618.01063315-.11484553.01273641-.22912195.02745924-.34260163.04475272-.02128455.00315489-.04256911.00630978-.06373984.00969837-.13499187.02161684-.26930081.0456875-.4022439.07349728-.00022764 0-.00045528.00011685-.00068293.00011685 2.30260163.48071195 4.45848781 2.12709782 5.82434147 4.20231521.96725203 1.46959511 2.61982113 2.31674185 4.3435285 2.19638859.0114959-.00081794.022878-.00163587.0343739-.0024538-1.03201622-3.79404892-4.4214959-6.57818207-8.44643899-6.57818207-.14113821 0-.28125203.00420652-.42068293.0109837-.03528455.00175271-.07022764.00479076-.10551219.00689402z"/><path d="m21.9081789 18.8018668c.623626-1.2374184.9779512-2.6409945.9779512-4.1303369 0-4.97316033-3.9270569-9.00464403-8.7713984-9.00464403-.6012032 0-1.188065.06239674-1.7551219.18088043 4.0026341.83511142 7.0151382 4.468144 7.0151382 8.8237636 0 1.4893424-.3543252 2.8929185-.9779513 4.1303369 3.5309594 1.5322256 6.0088456 5.120856 6.0088456 9.3037745 0 5.4209212-4.163122 9.8380027-9.3854634 10.0797609-.5967643 2.219057-2.5936423 3.9742282-5.14460166 4.5355652.56147966.1237418 1.14959346.1901114 1.75591866.1901114 3.3602277 0 6.1719513-2.0183125 6.9000651-4.7257935 5.2224553-.2417581 9.3854634-4.6588396 9.3854634-10.0797608 0-4.1828017-2.4776585-7.771549-6.0088455-9.3036577z"/></g><path d="m19.6661146 40.2959602c-.8480928 1.596695-4.3627362 3.3820731-5.6661146 3.4835258.1433826.0341336.2887177.0639328.435273.0904812.0117147.0021672.0234293.0044698.035266.0065016.1485078.026142.2984799.0486269.4500384.0666418.0039049.0004064.0078097.0006773.0117146.0012191.136305.0159832.2740744.0274965.4125759.0365717.0336796.0021672.0674813.0043345.101405.0062308.1443589.0077207.2894499.0128678.4358832.0128678 1.8621435 0 3.5651628-.6275439 4.8862352-1.6649622l.2316087-.1869223-1.1795203-2.1481155z" fill="#009000"/><path d="m30.9640443 42.4629257 3.8567638-5.9940696c.3051208-.4741273.2127201-1.0966711-.2172759-1.4650661-.4591997-.3933612-1.1496931-.3677047-1.5774696.0587913l-2.8403566 2.8322235c-.3767283.3756432-1.0221312.0632783-.9504068-.459861l.8352272-6.0949698c.0892467-.6511916-.3995072-1.2409457-1.0652359-1.2852406l-.7825436-.0521183c-.5880467-.0391175-1.1113779.3647133-1.213591.9364044l-1.4909098 8.3427314c-.0829386.4640028-.6811482.6170214-.9828813.2516177l-4.6693289-5.655818c-.3231103-.3914053-.8695708-.5260156-1.3416202-.3305431l-.8175882.3383666c-.6472718.267955-.9033303 1.0385701-.5421383 1.6315457l4.7982926 7.8772329c.6948156 1.1407359.9813628 2.4790153.8076589 3.7983112-.6218062 4.7236706-1.3943038 9.1785808-4.5554343 12.8075361h16.4947443c-3.3838967-3.8848299-4.2186567-8.7159586-4.6665253-13.8102102-.1145956-1.3082509.2069961-2.6178824.9206189-3.7268641z" fill="#bf6101"/><path d="m34.8085156 36.4213414c.3259917-.475087.2273954-1.0988909-.2321381-1.4680316-.49061-.3941574-1.2283347-.3684489-1.6853721.0589103l-1.3552618 1.2673215-1.6793815 1.5705195c-.4024974.3764036-1.0920473.0634064-1.0154168-.4607918l.8923587-6.1073067c.09298-.6360241-.4013742-1.2121002-1.0850582-1.2819626l-2.5092126 14.4065159c-.0421842.186069-.0751328.3738673-.098097.563049-.0478005.3936963-.0541656.7929262-.0168488 1.1921561.4787536 5.1046782 1.370613 9.9455857 4.9859758 13.838279h3.6802617c-3.6153629-3.8926933-4.5072223-8.7336008-4.9857262-13.8381637-.1228085-1.3107838.2209056-2.6229509.983217-3.7342925z" fill="#9a4d01"/><path d="m24.807512 7c-2.5025754 0-4.656751 1.54136657-5.6333121 3.7585224-1.0088547-.7398127-2.23925-1.17596463-3.5686093-1.17596463-3.4199896 0-6.19248799 2.87720963-6.19248799 6.42636463 0 1.1710398.30337404 2.2679662.83071939 3.2134226-2.96961632.4738693-5.243822 3.1369068-5.243822 6.3512903 0 3.5491551 2.77249841 6.4263647 6.192488 6.4263647 3.4199896 0 19.807512-15.0244802 19.807512-18.5736353 0-3.54915511-2.7722669-6.4263647-6.192488-6.4263647z" fill="#28a528"/></g></g></svg>