<svg height="62" viewBox="0 0 343 62" width="343" xmlns="http://www.w3.org/2000/svg"><g fill="none" fill-rule="evenodd"><path d="m90.872 24.4h3.5c1.344 0 2.548 1.092 2.548 2.464v5.068c0 1.904-.924 3.276-2.856 3.276h-1.204v8.792h-1.428c-.476 0-.56-.28-.56-.42zm4.116 7.98v-5.152c-.056-.532-.504-.952-1.064-.952h-1.064v7.056h1.064c.56 0 1.008-.42 1.064-.952zm14.98 9.632h4.2c-.224.504-.56 1.288-.644 1.456-.14.252-.448.532-1.092.532h-4.48v-19.04c.028-.308.28-.56.616-.56h5.236l-.672 1.456c-.112.252-.42.56-1.064.56h-1.624c-.28 0-.476.196-.476.476v5.824h3.024c-.224.504-.56 1.316-.644 1.484-.14.252-.42.532-1.064.532h-.84c-.252 0-.476.224-.476.476zm20.468 1.988h-2.212l-1.764-13.496-1.764 13.496h-2.212l2.968-19.6h1.092c.84 0 .98.532 1.064 1.064zm15.288 0h-2.016v-7.168c0-.952-.504-1.26-1.036-1.26h-1.064v8.428h-2.016v-19.6h3.668c1.344 0 2.464 1.092 2.464 2.464v6.048s.084 1.54-.728 1.736c.784.392.728 1.848.728 1.848zm-4.116-10.332h1.064c.532 0 1.036-.224 1.036-1.12v-5.264c0-.728-.504-1.008-1.036-1.008h-1.064zm17.416 8.344h4.536c-.224.504-.56 1.288-.644 1.456-.14.252-.448.532-1.092.532h-4.816v-19.6h1.4c.336.028.616.28.616.616zm18.424-13.356c-.168.084-.952.448-1.484.672v-2.268c0-.616-.476-1.092-1.064-1.092s-1.064.476-1.064 1.092v1.876c0 1.148.868 2.632.868 2.632l2.408 4.536c.98 1.792.896 3.108.896 3.108v2.492c0 1.372-1.12 2.492-2.52 2.492h-1.26c-1.344-.056-2.408-1.148-2.436-2.492v-2.016c0-.644.308-.952.56-1.092.168-.056.98-.42 1.484-.644v3.416c0 .588.476 1.064 1.064 1.064s1.064-.476 1.064-1.092v-2.24c0-1.148-.868-2.66-.868-2.66l-2.408-4.508c-.98-1.792-.896-3.108-.896-3.108v-2.016c0-1.372 1.12-2.604 2.52-2.604h1.26c1.344.028 2.436 1.26 2.436 2.604v.756c0 .644-.308.952-.56 1.092zm32.956 5.544c1.176.364 1.148 1.596 1.148 1.596v5.74c-.028 1.372-1.12 2.464-2.492 2.464h-3.64v-19.6h3.64c1.372 0 2.464 1.092 2.492 2.464v5.74s.028 1.232-1.148 1.596zm-.868-2.072v-4.704c0-.728-.504-1.008-1.036-1.008h-1.092v6.86h1.092c.532 0 1.036-.252 1.036-1.148zm0 8.848v-4.732c0-.868-.504-1.12-1.036-1.12h-1.092v6.888h1.092c.532 0 1.036-.28 1.036-1.036zm15.512 1.036h4.2c-.224.504-.56 1.288-.644 1.456-.14.252-.448.532-1.092.532h-4.48v-19.04c.028-.308.28-.56.616-.56h5.236l-.672 1.456c-.112.252-.42.56-1.064.56h-1.624c-.28 0-.476.196-.476.476v5.824h3.024c-.224.504-.56 1.316-.644 1.484-.14.252-.42.532-1.064.532h-.84c-.252 0-.476.224-.476.476zm20.468 1.988h-2.212l-1.764-13.496-1.764 13.496h-2.212l2.968-19.6h1.092c.84 0 .98.532 1.064 1.064zm15.288 0h-2.016v-7.168c0-.952-.504-1.26-1.036-1.26h-1.064v8.428h-2.016v-19.6h3.668c1.344 0 2.464 1.092 2.464 2.464v6.048s.084 1.54-.728 1.736c.784.392.728 1.848.728 1.848zm-4.116-10.332h1.064c.532 0 1.036-.224 1.036-1.12v-5.264c0-.728-.504-1.008-1.036-1.008h-1.064zm14.7-9.268h3.892c1.372 0 2.464 1.092 2.492 2.464v14.672c-.028 1.372-1.12 2.464-2.492 2.464h-3.892zm4.396 16.576v-13.552c0-.728-.504-1.008-1.064-1.008h-1.316v15.596h1.316c.56 0 1.064-.28 1.064-1.036zm31.668-16.772h1.54c1.344.056 2.436 1.148 2.436 2.492v15.036c-.028 1.344-1.092 2.408-2.436 2.464h-1.54c-1.372 0-2.492-1.12-2.52-2.464v-15.036c0-1.372 1.12-2.492 2.52-2.492zm.56 18.228h.308c.588 0 1.064-.476 1.064-1.092v-14.28c0-.616-.476-1.092-1.064-1.092h-.308c-.588.028-1.064.504-1.064 1.092v14.28c0 .588.476 1.064 1.064 1.092zm14.56-18.032h1.204c.588 0 .812.448.812.784v18.816h-1.428c-.476 0-.56-.28-.588-.42zm15.932 17.612h4.536c-.224.504-.56 1.288-.644 1.456-.14.252-.448.532-1.092.532h-4.816v-19.6h1.4c.336.028.616.28.616.616z" fill="#f5a623"/><path d="m52.7614779 13.110581c-2.6389894-8.03457845-.5280367-13.110581-.5280367-13.110581h-.211334s-2.0052857 4.07832598-3.1661306 10.7997969c-1.1608449 6.7214709-4.1956378 7.7194445-4.1956378 7.7194445s1.79425 1.4966633 3.3249295 1.4966633 1.8912608-1.8465481 1.8912608-1.8465481c1.050999 2.4898847-1.4957556 3.0280776-1.4957556 3.0280776-3.2455301 0-8.4966443-4.0432781-8.4966443-4.0432781-6.174656-4.2012906-8.4790331-3.6758694-8.4790331-3.6758694-2.0760289 0-3.9049043 1.8117973-3.9049043 1.8117973s-1.829174-1.8117973-3.9049043-1.8117973c0 0-2.3049741-.5251242-8.4793316 3.6758694 0 0-5.25111424 4.0432781-8.4966443 4.0432781 0 0-2.54645609-.5381929-1.49545716-3.0280776 0 0 .36058129 1.8465481 1.89126079 1.8465481 1.530381 0 3.32463107-1.4966633 3.32463107-1.4966633s-3.03449448-.9976766-4.19563785-7.7194445c-1.16114338-6.72147092-3.16642904-10.7997969-3.16642904-10.7997969h-.21133407s2.11095269 5.07600255-.52773817 13.110581c-2.63869087 8.0342813-2.42705831 11.2557163-1.93484097 14.6862505 0 0-.03164041-3.1507452 1.47933845-4.2710893 0 0-3.75058266 14.843669 1.78260881 21.1448623 0 0-.73101289-3.780716 0-5.6712225 0 0-.58833255 9.2422453 12.71078884 16.1042047 0 0-2.0055842-4.2363385-1.8470836-6.9668061 0 0 1.9172298 6.4770268 5.1541035 8.2270448 3.2368737 1.7500179 6.579116 3.6054766 7.9163711 5.6361746 1.3369566-2.030698 4.6789004-3.8858596 7.9157741-5.6361746 3.2374707-1.750315 5.154402-8.2270448 5.154402-8.2270448.1585006 2.7304676-1.8470836 6.9668061-1.8470836 6.9668061 13.2988229-6.8619594 12.7104903-16.1042047 12.7104903-16.1042047.7310129 1.8905065 0 5.6712225 0 5.6712225 5.53349-6.3011933 1.7829073-21.1448623 1.7829073-21.1448623 1.5112774 1.1203441 1.479637 4.2710893 1.479637 4.2710893.4925158-3.4305342.7041484-6.6519692-1.9345425-14.6862505zm-34.2149254 9.5570821s5.0308253-.3151339 8.9539378-2.625621c0 0 3.2897072 2.2053434 8.9891601 2.625621 0 0-9.9741918 3.3084607-17.9430979 0z" fill="#4a4a4a" fill-rule="nonzero"/></g></svg>